<?xml version="1.0" standalone="no"?>
<!DOCTYPE svg PUBLIC "-//W3C//DTD SVG 20010904//EN"
 "http://www.w3.org/TR/2001/REC-SVG-20010904/DTD/svg10.dtd">
<svg version="1.0" xmlns="http://www.w3.org/2000/svg"
 width="1276.000000pt" height="1280.000000pt" viewBox="0 0 1276.000000 1280.000000"
 preserveAspectRatio="xMidYMid meet">
<metadata>
Created by potrace 1.15, written by Peter Selinger 2001-2017
</metadata>
<g transform="translate(0.000000,1280.000000) scale(0.100000,-0.100000)"
fill="#000000" stroke="none">
<path d="M7322 12628 c-23 -266 -73 -452 -177 -663 -105 -213 -255 -396 -448
-546 -238 -185 -462 -291 -726 -344 -289 -58 -513 -73 -1286 -85 -940 -15
-1201 -37 -1510 -127 -807 -234 -1460 -693 -1643 -1153 -122 -309 -104 -739
47 -1081 81 -185 213 -345 385 -468 44 -32 99 -75 121 -96 201 -188 502 -331
879 -415 166 -37 506 -88 506 -76 0 3 -20 37 -45 76 -91 142 -162 307 -191
445 -17 81 -19 255 -4 335 27 145 102 329 186 459 160 245 408 397 720 443 52
7 301 12 729 13 778 1 739 -3 1265 141 785 215 1118 420 1313 810 184 368 269
885 238 1452 -17 312 -71 783 -92 807 -5 5 -9 -21 -9 -61 0 -179 -51 -427
-128 -627 l-19 -48 -12 198 c-6 109 -16 239 -22 288 -11 102 -60 459 -63 462
-1 1 -7 -62 -14 -139z"/>
<path d="M10279 8155 c-992 -136 -1729 -977 -1729 -1975 0 -372 79 -665 277
-1025 134 -244 235 -377 415 -550 275 -265 610 -439 987 -514 932 -187 1883
331 2235 1217 197 493 190 1038 -17 1522 -49 114 -181 357 -248 456 -113 168
-304 370 -462 488 -225 167 -505 296 -767 351 -211 45 -492 57 -691 30z"/>
<path d="M3520 6749 c-841 -64 -1625 -383 -2290 -932 -110 -91 -385 -366 -481
-482 -314 -376 -562 -808 -713 -1244 l-35 -101 164 0 c91 0 165 -1 165 -2 0
-2 -16 -45 -35 -97 -19 -51 -35 -98 -35 -102 0 -5 1677 -9 3810 -9 2096 0
3810 4 3810 8 0 19 -94 264 -150 390 -267 605 -677 1123 -1240 1565 -47 36
-130 103 -185 147 -125 101 -354 256 -505 342 -692 394 -1498 577 -2280 517z"/>
<path d="M10130 3850 c-267 -13 -492 -52 -701 -120 -349 -114 -569 -284 -781
-605 -227 -343 -381 -802 -469 -1395 -11 -74 -25 -138 -32 -142 -38 -26 -204
-99 -274 -122 -263 -82 -571 -74 -888 24 -159 49 -237 80 -381 151 -132 64
-147 74 -213 145 -138 148 -264 367 -335 584 l-34 105 929 3 929 2 0 400 0
400 -125 0 -125 0 0 105 0 105 -3815 0 -3815 0 0 -385 0 -384 128 -3 127 -3 1
-100 2 -100 1924 -3 1924 -2 18 -128 c114 -795 413 -1532 834 -2058 87 -108
88 -109 135 -112 46 -3 47 -4 132 -108 l86 -104 3708 0 3708 0 6 38 c4 20 12
138 18 262 34 660 -55 1671 -187 2107 -60 197 -206 508 -317 673 -68 100 -203
239 -291 297 -39 26 -100 75 -136 108 -185 173 -394 261 -765 320 -245 39
-642 58 -925 45z"/>
</g>
</svg>
